<?xml version="1.0" encoding="UTF-8" standalone="no"?>
<!DOCTYPE svg PUBLIC "-//W3C//DTD SVG 1.1//EN" "http://www.w3.org/Graphics/SVG/1.1/DTD/svg11.dtd">
<svg width="100%" height="100%" viewBox="0 0 1200 1200" version="1.1" xmlns="http://www.w3.org/2000/svg" xmlns:xlink="http://www.w3.org/1999/xlink" xml:space="preserve" xmlns:serif="http://www.serif.com/" style="fill-rule:evenodd;clip-rule:evenodd;stroke-linejoin:round;stroke-miterlimit:2;">
    <g transform="matrix(1.01695,0,0,1.01695,100,311.864)">
        <g id="dot-1" transform="matrix(4.16667,0,0,4.16667,0,0)">
            <path d="M36,118C36,127.941 27.941,136 18,136C8.058,136 0,127.941 0,118C0,108.059 8.058,100 18,100C27.941,100 36,108.059 36,118Z" style="fill-rule:nonzero;"/>
        </g>
        <g id="dot-2" transform="matrix(4.16667,0,0,4.16667,0,0)">
            <path d="M36,68C36,77.942 27.941,86 18,86C8.058,86 0,77.942 0,68C0,58.059 8.058,50 18,50C27.941,50 36,58.059 36,68Z" style="fill-rule:nonzero;"/>
        </g>
        <g id="dot-3" transform="matrix(4.16667,0,0,4.16667,0,0)">
            <path d="M36,18C36,27.942 27.941,36 18,36C8.058,36 0,27.942 0,18C0,8.059 8.058,0 18,0C27.941,0 36,8.059 36,18Z" style="fill-rule:nonzero;"/>
        </g>
        <g id="dot-4" transform="matrix(4.16667,0,0,4.16667,0,0)">
            <path d="M86,18C86,27.942 77.941,36 68,36C58.058,36 50,27.942 50,18C50,8.059 58.058,0 68,0C77.941,0 86,8.059 86,18Z" style="fill-rule:nonzero;"/>
        </g>
        <g id="dot-5" transform="matrix(4.16667,0,0,4.16667,0,0)">
            <path d="M136,18C136,27.942 127.941,36 118,36C108.059,36 100,27.942 100,18C100,8.059 108.059,0 118,0C127.941,0 136,8.059 136,18Z" style="fill-rule:nonzero;"/>
        </g>
        <g id="dot-6" transform="matrix(4.16667,0,0,4.16667,0,0)">
            <path d="M136,68C136,77.942 127.941,86 118,86C108.059,86 100,77.942 100,68C100,58.059 108.059,50 118,50C127.941,50 136,58.059 136,68Z" style="fill-rule:nonzero;"/>
        </g>
        <g id="dot-7" transform="matrix(4.16667,0,0,4.16667,0,0)">
            <path d="M136,118C136,127.941 127.941,136 118,136C108.059,136 100,127.941 100,118C100,108.059 108.059,100 118,100C127.941,100 136,108.059 136,118Z" style="fill-rule:nonzero;"/>
        </g>
        <g id="dot-8" transform="matrix(4.16667,0,0,4.16667,0,0)">
            <path d="M186,118C186,127.941 177.941,136 168,136C158.059,136 150,127.941 150,118C150,108.059 158.059,100 168,100C177.941,100 186,108.059 186,118Z" style="fill-rule:nonzero;"/>
        </g>
        <g id="dot-9" transform="matrix(4.16667,0,0,4.16667,0,0)">
            <path d="M236,118C236,127.941 227.941,136 218,136C208.059,136 200,127.941 200,118C200,108.059 208.059,100 218,100C227.941,100 236,108.059 236,118Z" style="fill-rule:nonzero;"/>
        </g>
        <g id="dot-10" transform="matrix(4.16667,0,0,4.16667,0,0)">
            <path d="M236,68C236,77.942 227.941,86 218,86C208.059,86 200,77.942 200,68C200,58.059 208.059,50 218,50C227.941,50 236,58.059 236,68Z" style="fill-rule:nonzero;"/>
        </g>
        <g id="dot-11" transform="matrix(4.16667,0,0,4.16667,0,0)">
            <path d="M236,18C236,27.942 227.941,36 218,36C208.059,36 200,27.942 200,18C200,8.059 208.059,0 218,0C227.941,0 236,8.059 236,18Z" style="fill-rule:nonzero;"/>
        </g>
    </g>
</svg>
