<svg version="1.1" id="Layer_1" xmlns="http://www.w3.org/2000/svg" x="0" y="0" viewBox="0 0 140 70" xml:space="preserve"><style>.st0{fill:#fff}</style><path d="M12.9 60c-.7 0-1.5-.3-2-.8-1.1-1.1-1.1-2.9 0-4l44.3-44.3c1.1-1.1 2.9-1.1 4 0s1.1 2.9 0 4L14.9 59.2c-.6.5-1.3.8-2 .8z"/><path d="M57.1 60c-.7 0-1.5-.3-2-.8L10.8 14.9c-1.1-1.1-1.1-2.9 0-4s2.9-1.1 4 0l44.3 44.3c1.1 1.1 1.1 2.9 0 4-.5.5-1.2.8-2 .8z"/><path class="st0" d="M82.9 60c-.7 0-1.5-.3-2-.8-1.1-1.1-1.1-2.9 0-4l44.3-44.3c1.1-1.1 2.9-1.1 4 0s1.1 2.9 0 4L84.9 59.2c-.6.5-1.3.8-2 .8z"/><path class="st0" d="M127.1 60c-.7 0-1.5-.3-2-.8L80.8 14.9c-1.1-1.1-1.1-2.9 0-4s2.9-1.1 4 0l44.3 44.3c1.1 1.1 1.1 2.9 0 4-.5.5-1.2.8-2 .8z"/></svg>