<svg xmlns="http://www.w3.org/2000/svg" viewBox="0 0 140 70"><path d="M30 33H3c-1.7 0-3-1.3-3-3V3c0-1.7 1.3-3 3-3h27c1.7 0 3 1.3 3 3v27c0 1.7-1.3 3-3 3zM6 27h21V6H6v21zm61 6H40c-1.7 0-3-1.3-3-3V3c0-1.7 1.3-3 3-3h27c1.7 0 3 1.3 3 3v27c0 1.7-1.3 3-3 3zm-24-6h21V6H43v21zM30 70H3c-1.7 0-3-1.3-3-3V40c0-1.7 1.3-3 3-3h27c1.7 0 3 1.3 3 3v27c0 1.7-1.3 3-3 3zM6 64h21V43H6v21zm61 6H40c-1.7 0-3-1.3-3-3V40c0-1.7 1.3-3 3-3h27c1.7 0 3 1.3 3 3v27c0 1.7-1.3 3-3 3zm-24-6h21V43H43v21z"/><path d="M100 33H73c-1.7 0-3-1.3-3-3V3c0-1.7 1.3-3 3-3h27c1.7 0 3 1.3 3 3v27c0 1.7-1.3 3-3 3zm-24-6h21V6H76v21zm61 6h-27c-1.7 0-3-1.3-3-3V3c0-1.7 1.3-3 3-3h27c1.7 0 3 1.3 3 3v27c0 1.7-1.3 3-3 3zm-24-6h21V6h-21v21zm-13 43H73c-1.7 0-3-1.3-3-3V40c0-1.7 1.3-3 3-3h27c1.7 0 3 1.3 3 3v27c0 1.7-1.3 3-3 3zm-24-6h21V43H76v21zm61 6h-27c-1.7 0-3-1.3-3-3V40c0-1.7 1.3-3 3-3h27c1.7 0 3 1.3 3 3v27c0 1.7-1.3 3-3 3zm-24-6h21V43h-21v21z" fill="#fff"/></svg>