<svg version="1.1" id="Layer_1" xmlns="http://www.w3.org/2000/svg" x="0" y="0" viewBox="0 0 140 70" xml:space="preserve"><style>.st0{fill:#fff}</style><path d="M35 70c-4.4 0-8.7-.8-12.8-2.5C11.6 62.9 7 46.9 6.9 39.4V17.6C6.8 8.4 14.6.4 24.4 0h21C55.3.4 63.2 8.4 63 17.7v21.7c-.1 7.5-4.6 23.5-15.2 28.1C43.7 69.2 39.4 70 35 70zM45.3 6.3H24.6c-6.2.3-11.5 5.5-11.4 11.3v21.8c.1 7.1 4.6 19.3 11.5 22.3 6.5 2.6 14.1 2.7 20.7 0 6.8-3 11.3-15.2 11.4-22.3V17.6c.1-5.9-5.2-11.1-11.5-11.3z"/><path d="M34.5 22.6c-1.7 0-3.1-1.4-3.1-3.1V3.1c0-1.7 1.4-3.1 3.1-3.1 1.7 0 3.1 1.4 3.1 3.1v16.3c.1 1.8-1.3 3.2-3.1 3.2z"/><path class="st0" d="M105 70c-4.4 0-8.7-.8-12.8-2.5C81.6 62.9 77 46.9 76.9 39.4V17.6C76.8 8.4 84.6.4 94.4 0h21c9.9.4 17.8 8.4 17.6 17.7v21.7c-.1 7.5-4.6 23.5-15.2 28.1-4.1 1.7-8.4 2.5-12.8 2.5zm10.3-63.7H94.6c-6.2.3-11.5 5.5-11.4 11.3v21.8c.1 7.1 4.6 19.3 11.5 22.3 6.5 2.6 14.1 2.7 20.7 0 6.8-3 11.3-15.2 11.4-22.3V17.6c.1-5.9-5.2-11.1-11.5-11.3z"/><path class="st0" d="M104.5 22.6c-1.7 0-3.1-1.4-3.1-3.1V3.1c0-1.7 1.4-3.1 3.1-3.1 1.7 0 3.1 1.4 3.1 3.1v16.3c.1 1.8-1.3 3.2-3.1 3.2z"/></svg>