<svg version="1.1" id="Layer_1" xmlns="http://www.w3.org/2000/svg" x="0" y="0" viewBox="0 0 140 70" xml:space="preserve"><style>.st0{fill:#fff}</style><circle cx="5.3" cy="20.2" r="5.3"/><circle cx="5.3" cy="35" r="5.3"/><circle cx="5.3" cy="49.8" r="5.3"/><circle cx="35" cy="20.2" r="5.3"/><circle cx="35" cy="35" r="5.3"/><circle cx="35" cy="49.8" r="5.3"/><circle cx="64.7" cy="20.2" r="5.3"/><circle cx="64.7" cy="35" r="5.3"/><circle cx="64.7" cy="49.8" r="5.3"/><circle cx="20.2" cy="20.2" r="5.3"/><circle cx="49.8" cy="49.8" r="5.3"/><circle class="st0" cx="75.3" cy="20.2" r="5.3"/><circle class="st0" cx="75.3" cy="35" r="5.3"/><circle class="st0" cx="75.3" cy="49.8" r="5.3"/><circle class="st0" cx="105" cy="20.2" r="5.3"/><circle class="st0" cx="105" cy="35" r="5.3"/><circle class="st0" cx="105" cy="49.8" r="5.3"/><circle class="st0" cx="134.7" cy="20.2" r="5.3"/><circle class="st0" cx="134.7" cy="35" r="5.3"/><circle class="st0" cx="134.7" cy="49.8" r="5.3"/><circle class="st0" cx="90.2" cy="20.2" r="5.3"/><circle class="st0" cx="119.8" cy="49.8" r="5.3"/></svg>