<svg version="1.1" id="Layer_1" xmlns="http://www.w3.org/2000/svg" x="0" y="0" viewBox="0 0 140 70" xml:space="preserve"><style>.st0{fill:#fff}</style><path d="M46 66.9c-.6 0-1.2-.2-1.8-.6-1.4-1-1.7-2.9-.7-4.2L63.2 35 43.5 7.9c-1-1.3-.7-3.2.7-4.2 1.3-1 3.2-.7 4.2.7l21 28.9c.8 1.1.8 2.5 0 3.6l-21 28.9c-.6.7-1.5 1.1-2.4 1.1z"/><path d="M67 38H3c-1.7 0-3-1.4-3-3 0-1.7 1.4-3 3-3h64c1.7 0 3 1.4 3 3 0 1.7-1.4 3-3 3z"/><path class="st0" d="M116 66.9c-.6 0-1.2-.2-1.8-.6-1.4-1-1.7-2.9-.7-4.2L133.2 35 113.5 7.9c-1-1.3-.7-3.2.7-4.2 1.3-1 3.2-.7 4.2.7l21 28.9c.8 1.1.8 2.5 0 3.6l-21 28.9c-.6.7-1.5 1.1-2.4 1.1z"/><path class="st0" d="M137 38H73c-1.7 0-3-1.4-3-3 0-1.7 1.4-3 3-3h64c1.7 0 3 1.4 3 3 0 1.7-1.4 3-3 3z"/></svg>