<svg version="1.1" id="Layer_1" xmlns="http://www.w3.org/2000/svg" x="0" y="0" viewBox="0 0 140 70" xml:space="preserve"><style>.st0{fill:#fff}</style><path d="M24 66.9c-.9 0-1.9-.4-2.4-1.2L.6 36.8c-.8-1.1-.8-2.5 0-3.6l21-28.9c1-1.4 2.9-1.6 4.2-.7 1.4 1 1.6 2.9.7 4.2L6.8 35l19.7 27.1c1 1.3.7 3.2-.7 4.2-.5.4-1.1.6-1.8.6z"/><path d="M67 38H3c-1.7 0-3-1.4-3-3 0-1.7 1.4-3 3-3h64c1.7 0 3 1.4 3 3 0 1.7-1.4 3-3 3z"/><path class="st0" d="M94 66.9c-.9 0-1.9-.4-2.4-1.2l-21-28.9c-.8-1.1-.8-2.5 0-3.6l21-28.9c1-1.4 2.9-1.6 4.2-.7 1.4 1 1.6 2.9.7 4.2L76.8 35l19.7 27.1c1 1.3.7 3.2-.7 4.2-.5.4-1.1.6-1.8.6z"/><path class="st0" d="M137 38H73c-1.7 0-3-1.4-3-3 0-1.7 1.4-3 3-3h64c1.7 0 3 1.4 3 3 0 1.7-1.4 3-3 3z"/></svg>