<svg version="1.1" id="Layer_1" xmlns="http://www.w3.org/2000/svg" x="0" y="0" viewBox="0 0 140 70" xml:space="preserve"><style>.st0{fill:#fff}</style><path d="M63.9 27c-.6 0-1.2-.2-1.8-.6L35 6.8 7.9 26.5c-1.4 1-3.2.7-4.2-.7-1-1.3-.7-3.2.7-4.2L33.3.6c1.1-.8 2.5-.8 3.6 0l28.9 21c1.4 1 1.7 2.9.7 4.2-.8.8-1.7 1.2-2.6 1.2z"/><path d="M35 70c-1.7 0-3-1.4-3-3V3c0-1.7 1.4-3 3-3 1.7 0 3 1.4 3 3v64c0 1.6-1.3 3-3 3z"/><path class="st0" d="M133.9 27c-.6 0-1.2-.2-1.8-.6L105 6.8 77.9 26.5c-1.4 1-3.2.7-4.2-.7-1-1.3-.7-3.2.7-4.2l28.9-21c1.1-.8 2.5-.8 3.6 0l28.9 21c1.4 1 1.7 2.9.7 4.2-.8.8-1.7 1.2-2.6 1.2z"/><path class="st0" d="M105 70c-1.7 0-3-1.4-3-3V3c0-1.7 1.4-3 3-3 1.7 0 3 1.4 3 3v64c0 1.6-1.3 3-3 3z"/></svg>