<?xml version="1.0" encoding="UTF-8" standalone="no"?>
<!DOCTYPE svg PUBLIC "-//W3C//DTD SVG 1.1//EN" "http://www.w3.org/Graphics/SVG/1.1/DTD/svg11.dtd">
<svg width="100%" height="100%" viewBox="0 0 256 256" version="1.1" xmlns="http://www.w3.org/2000/svg" xmlns:xlink="http://www.w3.org/1999/xlink" xml:space="preserve" xmlns:serif="http://www.serif.com/" style="fill-rule:evenodd;clip-rule:evenodd;stroke-linejoin:round;stroke-miterlimit:2;">
    <g transform="matrix(1.70667,0,0,1.70667,0.00021438,3.19744e-14)">
        <path d="M46.244,85.737C38.78,85.737 32.708,91.81 32.708,99.274C32.708,106.738 38.78,112.811 46.244,112.811C53.709,112.81 59.781,106.737 59.781,99.274C59.781,91.81 53.709,85.737 46.244,85.737ZM73.987,149.958C68.325,149.958 57.243,149.132 46.634,143.595C41.692,141.015 29.418,133.413 22.193,118.555C22.125,118.416 22.06,118.293 21.994,118.168C21.003,116.288 20.147,114.663 15.789,83.177C15.067,77.961 14.476,72.861 13.812,66.121L13.692,64.9L76.112,64.9L76.112,149.931L75.019,149.95C74.698,149.955 74.354,149.958 73.987,149.958Z" style="fill:white;fill-rule:nonzero;"/>
        <path d="M52.388,54.436L63.852,14.456L59.932,4.147L63.688,2.719L68.083,14.277L56.739,53.842L64,65.659L60.577,67.763L52.388,54.436Z" style="fill:white;fill-rule:nonzero;"/>
        <path d="M30.934,45.605L53.293,19.063L41.461,11.132L43.699,7.795L59.255,18.223L37.422,44.14L56.185,52.669L54.523,56.327L30.934,45.605Z" style="fill:white;fill-rule:nonzero;"/>
        <path d="M13.837,65.762L31.624,44.779L19.783,28.532L23.03,26.166L36.732,44.967L16.901,68.361L13.837,65.762Z" style="fill:white;fill-rule:nonzero;"/>
        <path d="M78.418,148.019L86.794,125.082L106.488,97.843L85.789,66.001L93.261,53.842L81.916,14.277L86.311,2.719L90.068,4.147L86.147,14.456L97.612,54.436L90.542,65.94L111.36,97.963L90.378,126.985L82.192,149.397L78.418,148.019Z" style="fill:white;fill-rule:nonzero;"/>
        <path d="M93.814,52.669L112.577,44.14L90.745,18.223L106.301,7.795L108.538,11.132L96.707,19.063L119.065,45.605L95.477,56.327L93.814,52.669Z" style="fill:white;fill-rule:nonzero;"/>
        <path d="M84.603,146.075L114.4,112.243L131.768,66.791L113.267,44.967L126.97,26.166L130.217,28.532L118.376,44.779L136.37,66.006L117.894,114.354L87.619,148.731L84.603,146.075Z" style="fill:white;fill-rule:nonzero;"/>
        <path d="M75,4.031C46.985,6.342 25.434,19.199 18.751,37.597C17.718,40.443 17.039,43.187 16.676,45.987C16.195,49.697 16.376,52.696 16.553,54.629C16.928,58.709 17.268,62.408 17.614,65.92C18.266,72.54 18.846,77.545 19.553,82.656C23.787,113.239 24.622,114.822 25.358,116.219C25.438,116.371 25.517,116.522 25.599,116.691C32.335,130.543 43.789,137.637 48.4,140.044C58.298,145.21 68.695,145.981 74.012,145.981C74.345,145.981 74.662,145.978 74.964,145.973L75.023,145.973C75.331,145.978 75.645,145.981 75.973,145.981C81.295,145.981 91.701,145.21 101.597,140.044C106.209,137.637 117.662,130.543 124.397,116.691C124.48,116.522 124.558,116.371 124.639,116.22C125.375,114.822 126.21,113.239 130.443,82.656C131.709,73.509 132.475,65.177 133.443,54.629C133.621,52.696 133.802,49.697 133.322,45.987C132.958,43.186 132.279,40.441 131.246,37.597C124.563,19.199 103.012,6.342 74.998,4.031M73.993,150C68.316,150 57.2,149.17 46.543,143.607C41.578,141.016 29.248,133.379 21.987,118.448C21.925,118.321 21.864,118.207 21.804,118.093C20.742,116.077 19.904,114.486 15.574,83.207C14.86,78.049 14.275,72.996 13.616,66.313C13.27,62.793 12.928,59.085 12.552,54.997C12.358,52.873 12.159,49.574 12.691,45.471C13.093,42.375 13.84,39.35 14.975,36.224C22.217,16.291 45.155,2.415 74.838,0.013L75,-0L75.159,0.012C104.845,2.415 127.783,16.29 135.025,36.224C136.159,39.348 136.907,42.373 137.308,45.471C137.841,49.572 137.642,52.872 137.447,54.997C136.473,65.602 135.704,73.973 134.426,83.207C130.096,114.486 129.258,116.078 128.196,118.092C128.135,118.207 128.075,118.321 128.014,118.448C120.753,133.379 108.422,141.016 103.458,143.607C92.801,149.169 81.685,149.999 76.009,149.999C75.652,149.999 75.31,149.996 74.985,149.991C74.691,149.996 74.35,150 73.993,150Z" style="fill:white;fill-rule:nonzero;"/>
        <rect x="72.991" y="1.147" width="4.018" height="147.712" style="fill:white;"/>
        <rect x="14.447" y="64.107" width="121.106" height="4.018" style="fill:white;"/>
    </g>
</svg>
