<?xml version="1.0" encoding="utf-8"?>
<svg xmlns="http://www.w3.org/2000/svg" xmlns:serif="http://www.serif.com/" xmlns:xlink="http://www.w3.org/1999/xlink" width="100%" height="100%" viewBox="0 0 300 150" version="1.1" style="fill-rule:evenodd;clip-rule:evenodd;stroke-linejoin:round;stroke-miterlimit:2;">
  <g>
    <path d="M46.244,85.737c-7.464,0 -13.536,6.073 -13.536,13.537c0,7.464 6.072,13.537 13.536,13.537c7.465,-0.001 13.537,-6.074 13.537,-13.537c0,-7.464 -6.072,-13.537 -13.537,-13.537Zm27.743,64.221c-5.662,0 -16.744,-0.826 -27.353,-6.363c-4.942,-2.58 -17.216,-10.182 -24.441,-25.04c-0.068,-0.139 -0.133,-0.262 -0.199,-0.387c-0.991,-1.88 -1.847,-3.505 -6.205,-34.991c-0.722,-5.216 -1.313,-10.316 -1.977,-17.056l-0.12,-1.221l62.42,0l0,85.031l-1.093,0.019c-0.321,0.005 -0.665,0.008 -1.032,0.008Z" style="fill-rule:nonzero;"/>
    <path d="M52.388,54.436l11.464,-39.98l-3.92,-10.309l3.756,-1.428l4.395,11.558l-11.344,39.565l7.261,11.817l-3.423,2.104l-8.189,-13.327Z" style="fill-rule:nonzero;"/>
    <path d="M30.934,45.605l22.359,-26.542l-11.832,-7.931l2.238,-3.337l15.556,10.428l-21.833,25.917l18.763,8.529l-1.662,3.658l-23.589,-10.722Z" style="fill-rule:nonzero;"/>
    <path d="M13.837,65.762l17.787,-20.983l-11.841,-16.247l3.247,-2.366l13.702,18.801l-19.831,23.394l-3.064,-2.599Z" style="fill-rule:nonzero;"/>
    <path d="M78.418,148.019l8.376,-22.937l19.694,-27.239l-20.699,-31.842l7.472,-12.159l-11.345,-39.565l4.395,-11.558l3.757,1.428l-3.921,10.309l11.465,39.98l-7.07,11.504l20.818,32.023l-20.982,29.022l-8.186,22.412l-3.774,-1.378Z" style="fill-rule:nonzero;"/>
    <path d="M93.814,52.669l18.763,-8.529l-21.832,-25.917l15.556,-10.428l2.237,3.337l-11.831,7.931l22.358,26.542l-23.588,10.722l-1.663,-3.658Z" style="fill-rule:nonzero;"/>
    <path d="M84.603,146.075l29.797,-33.832l17.368,-45.452l-18.501,-21.824l13.703,-18.801l3.247,2.366l-11.841,16.247l17.994,21.227l-18.476,48.348l-30.275,34.377l-3.016,-2.656Z" style="fill-rule:nonzero;"/>
    <path d="M75,4.031c-28.015,2.311 -49.566,15.168 -56.249,33.566c-1.033,2.846 -1.712,5.59 -2.075,8.39c-0.481,3.71 -0.3,6.709 -0.123,8.642c0.375,4.08 0.715,7.779 1.061,11.291c0.652,6.62 1.232,11.625 1.939,16.736c4.234,30.583 5.069,32.166 5.805,33.563c0.08,0.152 0.159,0.303 0.241,0.472c6.736,13.852 18.19,20.946 22.801,23.353c9.898,5.166 20.295,5.937 25.612,5.937c0.333,0 0.65,-0.003 0.952,-0.008l0.059,0c0.308,0.005 0.622,0.008 0.95,0.008c5.322,0 15.728,-0.771 25.624,-5.937c4.612,-2.407 16.065,-9.501 22.8,-23.353c0.083,-0.169 0.161,-0.32 0.242,-0.471c0.736,-1.398 1.571,-2.981 5.804,-33.564c1.266,-9.147 2.032,-17.479 3,-28.027c0.178,-1.933 0.359,-4.932 -0.121,-8.642c-0.364,-2.801 -1.043,-5.546 -2.076,-8.39c-6.683,-18.398 -28.234,-31.255 -56.248,-33.566m-1.005,145.969c-5.677,0 -16.793,-0.83 -27.45,-6.393c-4.965,-2.591 -17.295,-10.228 -24.556,-25.159c-0.062,-0.127 -0.123,-0.241 -0.183,-0.355c-1.062,-2.016 -1.9,-3.607 -6.23,-34.886c-0.714,-5.158 -1.299,-10.211 -1.958,-16.894c-0.346,-3.52 -0.688,-7.228 -1.064,-11.316c-0.194,-2.124 -0.393,-5.423 0.139,-9.526c0.402,-3.096 1.149,-6.121 2.284,-9.247c7.242,-19.933 30.18,-33.809 59.863,-36.211l0.162,-0.013l0.159,0.012c29.686,2.403 52.624,16.278 59.866,36.212c1.134,3.124 1.882,6.149 2.283,9.247c0.533,4.101 0.334,7.401 0.139,9.526c-0.974,10.605 -1.743,18.976 -3.021,28.21c-4.33,31.279 -5.168,32.871 -6.23,34.885c-0.061,0.115 -0.121,0.229 -0.182,0.356c-7.261,14.931 -19.592,22.568 -24.556,25.159c-10.657,5.562 -21.773,6.392 -27.449,6.392c-0.357,0 -0.699,-0.003 -1.024,-0.008c-0.294,0.005 -0.635,0.009 -0.992,0.009Z" style="fill-rule:nonzero;"/>
    <rect x="72.991" y="1.147" width="4.018" height="147.712"/>
    <rect x="14.447" y="64.107" width="121.106" height="4.018"/>
  </g>
  <g>
    <path d="M196.244,85.737c-7.464,0 -13.536,6.073 -13.536,13.537c0,7.464 6.072,13.537 13.536,13.537c7.465,-0.001 13.537,-6.074 13.537,-13.537c0,-7.464 -6.072,-13.537 -13.537,-13.537Zm27.743,64.221c-5.662,0 -16.744,-0.826 -27.353,-6.363c-4.942,-2.58 -17.216,-10.182 -24.441,-25.04c-0.068,-0.139 -0.133,-0.262 -0.199,-0.387c-0.991,-1.88 -1.847,-3.505 -6.205,-34.991c-0.722,-5.216 -1.313,-10.316 -1.977,-17.056l-0.12,-1.221l62.42,0l0,85.031l-1.093,0.019c-0.321,0.005 -0.665,0.008 -1.032,0.008Z" style="fill:#fff;fill-rule:nonzero;"/>
    <path d="M202.388,54.436l11.464,-39.98l-3.92,-10.309l3.756,-1.428l4.395,11.558l-11.344,39.565l7.261,11.817l-3.423,2.104l-8.189,-13.327Z" style="fill:#fff;fill-rule:nonzero;"/>
    <path d="M180.934,45.605l22.359,-26.542l-11.832,-7.931l2.238,-3.337l15.556,10.428l-21.833,25.917l18.763,8.529l-1.662,3.658l-23.589,-10.722Z" style="fill:#fff;fill-rule:nonzero;"/>
    <path d="M163.837,65.762l17.787,-20.983l-11.841,-16.247l3.247,-2.366l13.702,18.801l-19.831,23.394l-3.064,-2.599Z" style="fill:#fff;fill-rule:nonzero;"/>
    <path d="M228.418,148.019l8.376,-22.937l19.694,-27.239l-20.699,-31.842l7.472,-12.159l-11.345,-39.565l4.395,-11.558l3.757,1.428l-3.921,10.309l11.465,39.98l-7.07,11.504l20.818,32.023l-20.982,29.022l-8.186,22.412l-3.774,-1.378Z" style="fill:#fff;fill-rule:nonzero;"/>
    <path d="M243.814,52.669l18.763,-8.529l-21.832,-25.917l15.556,-10.428l2.237,3.337l-11.831,7.931l22.358,26.542l-23.588,10.722l-1.663,-3.658Z" style="fill:#fff;fill-rule:nonzero;"/>
    <path d="M234.603,146.075l29.797,-33.832l17.368,-45.452l-18.501,-21.824l13.703,-18.801l3.247,2.366l-11.841,16.247l17.994,21.227l-18.476,48.348l-30.275,34.377l-3.016,-2.656Z" style="fill:#fff;fill-rule:nonzero;"/>
    <path d="M225,4.031c-28.015,2.311 -49.566,15.168 -56.249,33.566c-1.033,2.846 -1.712,5.59 -2.075,8.39c-0.481,3.71 -0.3,6.709 -0.123,8.642c0.375,4.08 0.715,7.779 1.061,11.291c0.652,6.62 1.232,11.625 1.939,16.736c4.234,30.583 5.069,32.166 5.805,33.563c0.08,0.152 0.159,0.303 0.241,0.472c6.736,13.852 18.19,20.946 22.801,23.353c9.898,5.166 20.295,5.937 25.612,5.937c0.333,0 0.65,-0.003 0.952,-0.008l0.059,0c0.308,0.005 0.622,0.008 0.95,0.008c5.322,0 15.728,-0.771 25.624,-5.937c4.612,-2.407 16.065,-9.501 22.8,-23.353c0.083,-0.169 0.161,-0.32 0.242,-0.471c0.736,-1.398 1.571,-2.981 5.804,-33.564c1.266,-9.147 2.032,-17.479 3,-28.027c0.178,-1.933 0.359,-4.932 -0.121,-8.642c-0.364,-2.801 -1.043,-5.546 -2.076,-8.39c-6.683,-18.398 -28.234,-31.255 -56.248,-33.566m-1.005,145.969c-5.677,0 -16.793,-0.83 -27.45,-6.393c-4.965,-2.591 -17.295,-10.228 -24.556,-25.159c-0.062,-0.127 -0.123,-0.241 -0.183,-0.355c-1.062,-2.016 -1.9,-3.607 -6.23,-34.886c-0.714,-5.158 -1.299,-10.211 -1.958,-16.894c-0.346,-3.52 -0.688,-7.228 -1.064,-11.316c-0.194,-2.124 -0.393,-5.423 0.139,-9.526c0.402,-3.096 1.149,-6.121 2.284,-9.247c7.242,-19.933 30.18,-33.809 59.863,-36.211l0.162,-0.013l0.159,0.012c29.686,2.403 52.624,16.278 59.866,36.212c1.134,3.124 1.882,6.149 2.283,9.247c0.533,4.101 0.334,7.401 0.139,9.526c-0.974,10.605 -1.743,18.976 -3.021,28.21c-4.33,31.279 -5.168,32.871 -6.23,34.885c-0.061,0.115 -0.121,0.229 -0.182,0.356c-7.261,14.931 -19.592,22.568 -24.556,25.159c-10.657,5.562 -21.773,6.392 -27.449,6.392c-0.357,0 -0.699,-0.003 -1.024,-0.008c-0.294,0.005 -0.635,0.009 -0.992,0.009Z" style="fill:#fff;fill-rule:nonzero;"/>
    <rect x="222.991" y="1.147" width="4.018" height="147.712" style="fill:#fff;"/>
    <rect x="164.447" y="64.107" width="121.106" height="4.018" style="fill:#fff;"/>
  </g>
</svg>