<?xml version="1.0" encoding="UTF-8" standalone="no"?>
<!DOCTYPE svg PUBLIC "-//W3C//DTD SVG 1.1//EN" "http://www.w3.org/Graphics/SVG/1.1/DTD/svg11.dtd">
<svg width="100%" height="100%" viewBox="0 0 256 256" version="1.1" xmlns="http://www.w3.org/2000/svg" xmlns:xlink="http://www.w3.org/1999/xlink" xml:space="preserve" xmlns:serif="http://www.serif.com/" style="fill-rule:evenodd;clip-rule:evenodd;stroke-linejoin:round;stroke-miterlimit:2;">
    <g transform="matrix(0.576768,0,0,0.576768,0.00281804,3.38084)">
        <path d="M435.5,178.73C421.22,146.15 393.28,124.1 362.5,109.22C362.35,109.15 362.25,109.02 362.2,108.89C372.85,84.63 383.45,60.34 393.83,35.81C401.96,17.19 421.82,14 429.97,10.03C434.14,7.99 437.31,3.51 437.84,1.86C438.13,0.96 437.46,0.04 436.51,0.04L371.48,0.04C362.59,0.04 354.89,-0.72 352.93,5.22C352.93,5.22 353.06,6.21 354.88,7.78C357.85,10.33 368.89,14.73 360.15,34.78L345.02,68.8C340.09,80.24 337.51,87.14 332.52,97.79L323.75,117.05C291.85,143.63 258.36,168.63 222.78,191.54C222.55,191.69 222.25,191.67 222.03,191.5C218.39,188.65 214.7,186.53 210.36,183.54C207.07,181.27 201.21,174.02 197.3,175.98C182.19,183.54 162.13,180.25 162.13,180.25C161.72,180.39 162.17,183.26 162.48,183.55C165.92,186.71 174.48,192.53 178.04,195.22C205.42,215.89 233.51,235.89 264.82,252.35C265.12,252.51 265.24,252.86 265.11,253.17C249.7,288.07 234.81,323.5 219.2,358.2C218.97,358.71 218.25,358.71 218.03,358.2C204.27,326.21 188.96,291.4 175.04,259.64C174.9,259.33 174.55,259.18 174.23,259.3C164.71,262.76 155.69,266.72 146.52,270.53C146.19,270.67 146.03,271.04 146.17,271.37C166.97,321.35 191.78,373.78 212.75,422.77C214.12,425.98 214.69,430.75 217.91,432.05C221.85,432.84 222.4,427.68 224.1,423.8C233.43,402.51 243.06,381.47 251.94,361.58C283.68,290.55 313.84,218.01 344.82,148.22C345.09,147.62 344.39,147.05 343.86,147.43C331.86,156.06 319.74,165.5 307.62,174.59C304.42,176.99 297.05,181.23 294.9,184.21C293,186.86 292.22,191.1 290.78,194.52C286.42,204.83 281.89,214.41 277.32,224.14C277.16,224.48 276.75,224.61 276.42,224.43C267.56,219.48 258.69,214.54 250.3,209.11C249.92,208.87 249.9,208.32 250.26,208.04C283.16,183 316.32,158.22 349.93,133.89C350.12,133.75 350.37,133.73 350.59,133.82C369.93,142.55 386.25,155.25 398.02,171.47C406.52,183.18 416.12,196.22 414.86,216.5C413.01,246.26 381.29,256.09 349.21,253.62C335.89,252.6 323.81,246.12 312.65,242.46C312.33,242.35 311.99,242.53 311.87,242.84C308.71,250.92 304.91,258.35 301.69,266.38C301.55,266.73 301.74,267.13 302.1,267.24C323.19,274.08 341.54,283.58 368.81,283.53C391.12,283.49 408.35,276.29 420.71,264.97C432.82,253.88 442.69,237.2 443.74,218.22C444.58,203.25 440.39,189.85 435.5,178.73Z"/>
    </g>
    <g transform="matrix(0.576768,0,0,0.576768,0.00281804,3.38084)">
        <path d="M187.07,209.73C178.12,214.64 169.8,220.19 160.26,224.51C153.58,208.85 146.75,193.34 139.98,177.76C151.01,170.35 164.96,160.01 169.75,147.45C177.9,126.05 165.22,112.57 155.42,106.25C142.71,98.06 124.21,94.7 105.39,97.78C100.4,87.13 97.82,80.24 92.89,68.79L77.76,34.77C69.02,14.72 80.06,10.32 83.03,7.77C84.86,6.2 84.98,5.21 84.98,5.21C83.02,-0.73 75.32,0.03 66.43,0.03L1.39,0.03C0.44,0.03 -0.22,0.94 0.06,1.85C0.59,3.5 3.75,7.99 7.93,10.02C16.09,14 35.94,17.18 44.07,35.8C72.89,103.91 103.38,170.36 132.07,238.6C114.55,246.77 91.4,252.74 68.82,248.91C47.45,245.28 30.36,234.44 29.29,212.13C28.4,193.68 36.58,181.13 44.07,170.88C54.12,157.12 65.67,146.29 79.48,136.85C75.99,128.66 72.2,120.76 68.82,112.45C42.79,127.06 20.16,147.96 7.98,176.73C1.49,192.06 -1.85,212.33 2.82,228.63C7.23,244.01 16.63,256.51 28.6,265.41C41.5,275 57.03,279.5 77.07,279.5C96.66,279.5 113.1,274.01 128.29,268.16C158.61,256.46 189.07,245.03 213.53,228.29C204.62,222.2 196.24,215.56 187.07,209.73ZM130.01,155.08C125.9,145.21 121.69,135.44 117.29,125.86C117.44,125.55 117.59,125.25 117.98,125.17C132.62,121.52 146.75,127.33 145.14,139.13C144.22,145.81 134.5,151.04 130.01,155.08Z"/>
    </g>
    <g transform="matrix(0.576768,0,0,0.576768,0.00281804,3.38084)">
        <path d="M73.08,222.55C79.53,220.34 83.53,218.13 87.95,215.39C92.63,212.49 103.12,204.78 107.36,202.43C107.69,202.25 107.81,201.84 107.66,201.5C104.47,194.53 101.93,188.67 98,180.53C97.8,180.12 97.29,179.96 96.91,180.2C92.72,182.77 86.8,185.93 82.82,188.71C82.47,188.96 82.15,189.53 82.11,189.96C80.23,209 79.05,209.25 72.12,221.37C71.74,222.01 72.38,222.79 73.08,222.55Z"/>
    </g>
</svg>
