<svg id="Layer_1" data-name="Layer 1" xmlns="http://www.w3.org/2000/svg" viewBox="0 0 140 70"><title>calculator3-icon</title><path id="Bottom_Right_Shadow" data-name="Bottom Right Shadow" d="M65.36,52.46,35,70V34.93Z" fill="#131313"/><path id="Bottom_Right" data-name="Bottom Right" d="M59.8,55.68,35,70V34.93Z" fill="#0f0f0f"/><path id="Mid_Right" data-name="Mid Right" d="M35,35,65.36,52.53V17.47Z"/><path id="Top_Right_Shadow" data-name="Top Right Shadow" d="M65.35,17.54,35,35.08V0Z" fill="#111"/><path id="Top_Right" data-name="Top Right" d="M59.8,20.75,35,35.08V0Z" fill="#0f0f0f"/><path id="Bottom_Left_Shadow" data-name="Bottom Left Shadow" d="M4.64,52.46,35,70V34.93Z" fill="#0f0f0f"/><path id="Bottom_Left" data-name="Bottom Left" d="M10.18,55.67,35,70V34.93Z" fill="#060606"/><path id="Mid_Left" data-name="Mid Left" d="M35,35,4.64,52.54V17.48Z"/><path id="Top_Left_Shadow" data-name="Top Left Shadow" d="M4.65,17.54,35,35.08V0Z" fill="#111"/><path id="Top_Left" data-name="Top Left" d="M10.18,20.69,35,35.08V0Z" fill="#0e0e0e"/><path id="Bottom_Right_Shadow-2" data-name="Bottom Right Shadow" d="M135.36,52.46,105,70V34.92Z" fill="#ececec"/><path id="Bottom_Right-2" data-name="Bottom Right" d="M129.8,55.67,105,70V34.92Z" fill="#f0f0f0"/><path id="Mid_Right-2" data-name="Mid Right" d="M105,35l30.39,17.53V17.46Z" fill="#fff"/><path id="Top_Right_Shadow-2" data-name="Top Right Shadow" d="M135.35,17.54,105,35.08V0Z" fill="#eee"/><path id="Top_Right-2" data-name="Top Right" d="M129.8,20.75,105,35.08V0Z" fill="#f0f0f0"/><path id="Bottom_Left_Shadow-2" data-name="Bottom Left Shadow" d="M74.64,52.46,105,70V34.92Z" fill="#f0f0f0"/><path id="Bottom_Left-2" data-name="Bottom Left" d="M80.18,55.66,105,70V34.92Z" fill="#f9f9f9"/><path id="Mid_Left-2" data-name="Mid Left" d="M105,35,74.64,52.54V17.47Z" fill="#fff"/><path id="Top_Left_Shadow-2" data-name="Top Left Shadow" d="M74.65,17.54,105,35.08V0Z" fill="#eee"/><path id="Top_Left-2" data-name="Top Left" d="M80.18,20.69,105,35.08V0Z" fill="#f1f1f1"/></svg>