<?xml version="1.0" encoding="utf-8"?>
<!-- Generator: Adobe Illustrator 20.0.0, SVG Export Plug-In . SVG Version: 6.00 Build 0)  -->
<svg version="1.1" id="Layer_1" xmlns="http://www.w3.org/2000/svg" xmlns:xlink="http://www.w3.org/1999/xlink" x="0px" y="0px"
	 viewBox="0 0 140 70" style="enable-background:new 0 0 140 70;" xml:space="preserve">
<style type="text/css">
	.st0{fill:#FFFFFF;}
</style>
<g>
	<g>
		<path d="M12.9,60c-0.7,0-1.5-0.3-2-0.8c-1.1-1.1-1.1-2.9,0-4l44.3-44.3c1.1-1.1,2.9-1.1,4,0c1.1,1.1,1.1,2.9,0,4L14.9,59.2
			C14.3,59.7,13.6,60,12.9,60L12.9,60z"/>
	</g>
	<g>
		<path d="M57.1,60c-0.7,0-1.5-0.3-2-0.8L10.8,14.9c-1.1-1.1-1.1-2.9,0-4c1.1-1.1,2.9-1.1,4,0l44.3,44.3c1.1,1.1,1.1,2.9,0,4
			C58.6,59.7,57.9,60,57.1,60L57.1,60z"/>
	</g>
</g>
<g>
	<g>
		<path class="st0" d="M82.9,60c-0.7,0-1.5-0.3-2-0.8c-1.1-1.1-1.1-2.9,0-4l44.3-44.3c1.1-1.1,2.9-1.1,4,0c1.1,1.1,1.1,2.9,0,4
			L84.9,59.2C84.3,59.7,83.6,60,82.9,60L82.9,60z"/>
	</g>
	<g>
		<path class="st0" d="M127.1,60c-0.7,0-1.5-0.3-2-0.8L80.8,14.9c-1.1-1.1-1.1-2.9,0-4c1.1-1.1,2.9-1.1,4,0l44.3,44.3
			c1.1,1.1,1.1,2.9,0,4C128.6,59.7,127.9,60,127.1,60L127.1,60z"/>
	</g>
</g>
</svg>
