<?xml version="1.0" encoding="utf-8"?>
<!-- Generator: Adobe Illustrator 19.2.1, SVG Export Plug-In . SVG Version: 6.00 Build 0)  -->
<svg version="1.1" id="Layer_1" xmlns="http://www.w3.org/2000/svg" xmlns:xlink="http://www.w3.org/1999/xlink" x="0px" y="0px"
	 viewBox="0 0 140 70" style="enable-background:new 0 0 140 70;" xml:space="preserve">
<style type="text/css">
	.st0{fill:#FFFFFF;}
</style>
<g>
	<g>
		<path d="M62.8,60.4H7.2c-4,0-7.2-3.2-7.2-7.2V16.8c0-4,3.2-7.2,7.2-7.2h55.6c4,0,7.2,3.2,7.2,7.2v36.4
			C70,57.2,66.8,60.4,62.8,60.4L62.8,60.4z M7.2,15.7c-0.6,0-1.1,0.5-1.1,1.1v36.4c0,0.6,0.5,1.1,1.1,1.1h55.6
			c0.6,0,1.1-0.5,1.1-1.1V16.8c0-0.6-0.5-1.1-1.1-1.1L7.2,15.7L7.2,15.7z"/>
	</g>
	<g>
		<path d="M62.8,58.9H7.2c-2.3,0-4.5-1.5-5.3-3.7c-0.2-0.6-0.1-1.3,0.4-1.7L24,34.2c0.6-0.6,1.6-0.5,2.2,0.1s0.5,1.6-0.1,2.2
			L5.3,54.9c0.5,0.5,1.2,0.9,1.9,0.9h55.6c0.7,0,1.4-0.3,1.9-0.8l-21-18.7c-0.6-0.6-0.7-1.5-0.1-2.2c0.6-0.6,1.5-0.7,2.2-0.1
			l21.9,19.6c0.5,0.4,0.6,1.1,0.4,1.7C67.3,57.4,65.1,58.9,62.8,58.9L62.8,58.9z"/>
	</g>
	<g>
		<path d="M35,45.1c-0.4,0-0.7-0.1-1-0.4L2.3,16.5c-0.5-0.4-0.6-1.1-0.4-1.7c0.8-2.2,3-3.7,5.3-3.7h55.6c2.3,0,4.5,1.5,5.3,3.7
			c0.2,0.6,0.1,1.3-0.4,1.7L36,44.7C35.7,45,35.4,45.1,35,45.1L35,45.1z M5.3,15.1L35,41.5L64.7,15c-0.5-0.5-1.2-0.8-1.9-0.8H7.2
			C6.5,14.2,5.8,14.5,5.3,15.1L5.3,15.1z"/>
	</g>
</g>
<g>
	<g>
		<path class="st0" d="M132.8,60.4H77.2c-4,0-7.2-3.2-7.2-7.2V16.8c0-4,3.2-7.2,7.2-7.2h55.6c4,0,7.2,3.2,7.2,7.2v36.4
			C140,57.2,136.8,60.4,132.8,60.4L132.8,60.4z M77.2,15.7c-0.6,0-1.1,0.5-1.1,1.1v36.4c0,0.6,0.5,1.1,1.1,1.1h55.6
			c0.6,0,1.1-0.5,1.1-1.1V16.8c0-0.6-0.5-1.1-1.1-1.1L77.2,15.7L77.2,15.7z"/>
	</g>
	<g>
		<path class="st0" d="M132.8,58.9H77.2c-2.3,0-4.5-1.5-5.3-3.7c-0.2-0.6-0.1-1.3,0.4-1.7L94,34.2c0.6-0.6,1.6-0.5,2.2,0.1
			s0.5,1.6-0.1,2.2L75.3,54.9c0.5,0.5,1.2,0.9,1.9,0.9h55.6c0.7,0,1.4-0.3,1.9-0.8l-21-18.7c-0.6-0.6-0.7-1.5-0.1-2.2
			c0.6-0.6,1.5-0.7,2.2-0.1l21.9,19.6c0.5,0.4,0.6,1.1,0.4,1.7C137.3,57.4,135.1,58.9,132.8,58.9L132.8,58.9z"/>
	</g>
	<g>
		<path class="st0" d="M105,45.1c-0.4,0-0.7-0.1-1-0.4L72.3,16.5c-0.5-0.4-0.6-1.1-0.4-1.7c0.8-2.2,3-3.7,5.3-3.7h55.6
			c2.3,0,4.5,1.5,5.3,3.7c0.2,0.6,0.1,1.3-0.4,1.7L106,44.7C105.7,45,105.4,45.1,105,45.1L105,45.1z M75.3,15.1L105,41.5L134.7,15
			c-0.5-0.5-1.2-0.8-1.9-0.8H77.2C76.5,14.2,75.8,14.5,75.3,15.1L75.3,15.1z"/>
	</g>
</g>
</svg>
