<?xml version="1.0" encoding="utf-8"?>
<!-- Generator: Adobe Illustrator 21.1.0, SVG Export Plug-In . SVG Version: 6.00 Build 0)  -->
<svg version="1.1" id="Layer_1" xmlns="http://www.w3.org/2000/svg" xmlns:xlink="http://www.w3.org/1999/xlink" x="0px" y="0px"
	 viewBox="0 0 140 70" style="enable-background:new 0 0 140 70;" xml:space="preserve">
<style type="text/css">
	.st0{fill:#FFFFFF;}
</style>
<g>
	<path d="M35,0.9c-19.3,0-35,15.7-35,35c0,15.5,10,28.6,23.9,33.2c1.7,0.3,2.4-0.8,2.4-1.7c0-0.8,0-3.6,0-6.5
		c-9.7,2.1-11.8-4.1-11.8-4.1c-1.6-4-3.9-5.1-3.9-5.1c-3.2-2.2,0.2-2.1,0.2-2.1c3.5,0.2,5.4,3.6,5.4,3.6c3.1,5.4,8.2,3.8,10.2,2.9
		c0.3-2.3,1.2-3.8,2.2-4.7c-7.8-0.9-15.9-3.9-15.9-17.3c0-3.8,1.4-6.9,3.6-9.4c-0.4-0.9-1.6-4.4,0.3-9.3c0,0,2.9-0.9,9.6,3.6
		c2.8-0.8,5.8-1.2,8.8-1.2s6,0.4,8.8,1.2c6.7-4.5,9.6-3.6,9.6-3.6c1.9,4.8,0.7,8.4,0.3,9.3c2.2,2.5,3.6,5.6,3.6,9.4
		c0,13.4-8.2,16.4-16,17.3c1.3,1.1,2.4,3.2,2.4,6.5c0,4.7,0,8.5,0,9.6c0,0.9,0.6,2,2.4,1.7C60,64.4,70,51.3,70,35.9
		C70,16.5,54.3,0.9,35,0.9z"/>
	<path d="M13.3,51.1c-0.1,0.2-0.4,0.2-0.6,0.1c-0.3-0.1-0.4-0.4-0.3-0.5c0.1-0.2,0.3-0.2,0.6-0.1C13.2,50.7,13.3,50.9,13.3,51.1
		L13.3,51.1z"/>
	<path d="M14.7,52.7c-0.2,0.2-0.5,0.1-0.7-0.2c-0.2-0.2-0.3-0.6-0.1-0.7c0.2-0.2,0.5-0.1,0.7,0.2C14.8,52.2,14.8,52.5,14.7,52.7
		L14.7,52.7z"/>
	<path d="M16.1,54.7c-0.2,0.1-0.6,0-0.8-0.3s-0.2-0.7,0-0.8s0.6,0,0.8,0.3C16.3,54.2,16.3,54.6,16.1,54.7L16.1,54.7z"/>
	<path d="M17.9,56.7c-0.2,0.2-0.6,0.2-0.9-0.1s-0.4-0.7-0.2-0.9c0.2-0.2,0.6-0.2,0.9,0.1C18.1,56,18.1,56.5,17.9,56.7L17.9,56.7z"/>
	<path d="M20.6,57.8c-0.1,0.3-0.5,0.4-0.9,0.3c-0.4-0.1-0.7-0.4-0.6-0.7s0.5-0.4,0.9-0.3S20.6,57.5,20.6,57.8L20.6,57.8z"/>
	<path d="M23.4,58c0,0.3-0.3,0.5-0.7,0.5c-0.4,0-0.8-0.2-0.8-0.5s0.3-0.5,0.7-0.5C23.1,57.5,23.4,57.7,23.4,58L23.4,58z"/>
	<path d="M26.1,57.5c0,0.3-0.2,0.6-0.7,0.6c-0.4,0.1-0.8-0.1-0.8-0.4c-0.1-0.3,0.2-0.6,0.6-0.7C25.7,57.1,26,57.3,26.1,57.5
		L26.1,57.5z"/>
</g>
<g>
	<path class="st0" d="M105,0.8c-19.3,0-35,15.7-35,35C70,51.3,80,64.4,93.9,69c1.7,0.3,2.4-0.8,2.4-1.7c0-0.8,0-3.6,0-6.5
		c-9.7,2.1-11.8-4.1-11.8-4.1c-1.6-4-3.9-5.1-3.9-5.1c-3.2-2.2,0.2-2.1,0.2-2.1c3.5,0.2,5.4,3.6,5.4,3.6c3.1,5.4,8.2,3.8,10.2,2.9
		c0.3-2.3,1.2-3.8,2.2-4.7c-7.8-0.9-15.9-3.9-15.9-17.3c0-3.8,1.4-6.9,3.6-9.4c-0.4-0.9-1.6-4.4,0.3-9.3c0,0,2.9-0.9,9.6,3.6
		c2.8-0.8,5.8-1.2,8.8-1.2s6,0.4,8.8,1.2c6.7-4.5,9.6-3.6,9.6-3.6c1.9,4.8,0.7,8.4,0.3,9.3c2.2,2.5,3.6,5.6,3.6,9.4
		c0,13.4-8.2,16.4-16,17.3c1.3,1.1,2.4,3.2,2.4,6.5c0,4.7,0,8.5,0,9.6c0,0.9,0.6,2,2.4,1.7C130,64.3,140,51.2,140,35.8
		C140,16.4,124.3,0.8,105,0.8z"/>
	<path class="st0" d="M83.3,51c-0.1,0.2-0.4,0.2-0.6,0.1c-0.3-0.1-0.4-0.4-0.3-0.5c0.1-0.2,0.3-0.2,0.6-0.1
		C83.2,50.6,83.3,50.8,83.3,51L83.3,51z"/>
	<path class="st0" d="M84.7,52.6c-0.2,0.2-0.5,0.1-0.7-0.2c-0.2-0.2-0.3-0.6-0.1-0.7c0.2-0.2,0.5-0.1,0.7,0.2
		C84.8,52.1,84.8,52.4,84.7,52.6L84.7,52.6z"/>
	<path class="st0" d="M86.1,54.6c-0.2,0.1-0.6,0-0.8-0.3c-0.2-0.3-0.2-0.7,0-0.8s0.6,0,0.8,0.3S86.3,54.5,86.1,54.6L86.1,54.6z"/>
	<path class="st0" d="M87.9,56.6c-0.2,0.2-0.6,0.2-0.9-0.1s-0.4-0.7-0.2-0.9c0.2-0.2,0.6-0.2,0.9,0.1C88.1,55.9,88.1,56.4,87.9,56.6
		L87.9,56.6z"/>
	<path class="st0" d="M90.6,57.7c-0.1,0.3-0.5,0.4-0.9,0.3c-0.4-0.1-0.7-0.4-0.6-0.7s0.5-0.4,0.9-0.3S90.6,57.4,90.6,57.7L90.6,57.7
		z"/>
	<path class="st0" d="M93.4,57.9c0,0.3-0.3,0.5-0.7,0.5c-0.4,0-0.8-0.2-0.8-0.5s0.3-0.5,0.7-0.5C93.1,57.4,93.4,57.6,93.4,57.9
		L93.4,57.9z"/>
	<path class="st0" d="M96.1,57.4c0,0.3-0.2,0.6-0.7,0.6c-0.4,0.1-0.8-0.1-0.8-0.4c-0.1-0.3,0.2-0.6,0.6-0.7
		C95.7,57,96,57.2,96.1,57.4L96.1,57.4z"/>
</g>
</svg>
