<?xml version="1.0" encoding="utf-8"?>
<!-- Generator: Adobe Illustrator 20.0.0, SVG Export Plug-In . SVG Version: 6.00 Build 0)  -->
<svg version="1.1" id="Layer_1" xmlns="http://www.w3.org/2000/svg" xmlns:xlink="http://www.w3.org/1999/xlink" x="0px" y="0px"
	 viewBox="0 0 140 70" style="enable-background:new 0 0 140 70;" xml:space="preserve">
<style type="text/css">
	.st0{fill:#FFFFFF;}
</style>
<g>
	<g>
		<path d="M30,33H3c-1.7,0-3-1.3-3-3V3c0-1.7,1.3-3,3-3h27c1.7,0,3,1.3,3,3v27C33,31.7,31.7,33,30,33L30,33z M6,27h21V6H6V27L6,27z"
			/>
	</g>
	<g>
		<path d="M67,33H40c-1.7,0-3-1.3-3-3V3c0-1.7,1.3-3,3-3h27c1.7,0,3,1.3,3,3v27C70,31.7,68.7,33,67,33L67,33z M43,27h21V6H43V27
			L43,27z"/>
	</g>
	<g>
		<path d="M30,70H3c-1.7,0-3-1.3-3-3V40c0-1.7,1.3-3,3-3h27c1.7,0,3,1.3,3,3v27C33,68.7,31.7,70,30,70L30,70z M6,64h21V43H6V64L6,64
			z"/>
	</g>
	<g>
		<path d="M67,70H40c-1.7,0-3-1.3-3-3V40c0-1.7,1.3-3,3-3h27c1.7,0,3,1.3,3,3v27C70,68.7,68.7,70,67,70L67,70z M43,64h21V43H43V64
			L43,64z"/>
	</g>
</g>
<g>
	<g>
		<path class="st0" d="M100,33H73c-1.7,0-3-1.3-3-3V3c0-1.7,1.3-3,3-3h27c1.7,0,3,1.3,3,3v27C103,31.7,101.7,33,100,33L100,33z
			 M76,27h21V6H76V27L76,27z"/>
	</g>
	<g>
		<path class="st0" d="M137,33h-27c-1.7,0-3-1.3-3-3V3c0-1.7,1.3-3,3-3h27c1.7,0,3,1.3,3,3v27C140,31.7,138.7,33,137,33L137,33z
			 M113,27h21V6h-21V27L113,27z"/>
	</g>
	<g>
		<path class="st0" d="M100,70H73c-1.7,0-3-1.3-3-3V40c0-1.7,1.3-3,3-3h27c1.7,0,3,1.3,3,3v27C103,68.7,101.7,70,100,70L100,70z
			 M76,64h21V43H76V64L76,64z"/>
	</g>
	<g>
		<path class="st0" d="M137,70h-27c-1.7,0-3-1.3-3-3V40c0-1.7,1.3-3,3-3h27c1.7,0,3,1.3,3,3v27C140,68.7,138.7,70,137,70L137,70z
			 M113,64h21V43h-21V64L113,64z"/>
	</g>
</g>
</svg>
