<?xml version="1.0" encoding="utf-8"?>
<!-- Generator: Adobe Illustrator 19.2.1, SVG Export Plug-In . SVG Version: 6.00 Build 0)  -->
<svg version="1.1" id="Layer_1" xmlns="http://www.w3.org/2000/svg" xmlns:xlink="http://www.w3.org/1999/xlink" x="0px" y="0px"
	 viewBox="0 0 140 70" style="enable-background:new 0 0 140 70;" xml:space="preserve">
<style type="text/css">
	.st0{fill:#FFFFFF;}
</style>
<g>
	<path d="M63,0H7C3.1,0,0,3.1,0,7v56c0,3.9,3.1,7,7,7h56c3.9,0,7-3.1,7-7V7C70,3.1,66.9,0,63,0L63,0z M35,21c7.7,0,14,6.3,14,14
		s-6.3,14-14,14s-14-6.3-14-14S27.3,21,35,21L35,21z M8.8,63c-1,0-1.7-0.7-1.7-1.7V31.5h7.3C14,32.6,14,34,14,35
		c0,11.6,9.5,21,21,21s21-9.5,21-21c0-1,0-2.4-0.4-3.5H63v29.8c0,1-0.7,1.7-1.7,1.7H8.8z M63,15.8c0,1-0.7,1.7-1.7,1.7h-7
		c-1,0-1.7-0.7-1.7-1.7v-7c0-1,0.7-1.7,1.7-1.7h7c1,0,1.7,0.7,1.7,1.7V15.8z"/>
</g>
<g>
	<path class="st0" d="M133,0H77c-3.9,0-7,3.1-7,7v56c0,3.9,3.1,7,7,7h56c3.9,0,7-3.1,7-7V7C140,3.1,136.9,0,133,0L133,0z M105,21
		c7.7,0,14,6.3,14,14s-6.3,14-14,14s-14-6.3-14-14S97.3,21,105,21L105,21z M78.8,63c-1,0-1.7-0.7-1.7-1.7V31.5h7.3
		C84,32.6,84,34,84,35c0,11.6,9.5,21,21,21s21-9.5,21-21c0-1,0-2.4-0.4-3.5h7.4v29.8c0,1-0.7,1.7-1.7,1.7H78.8z M133,15.8
		c0,1-0.7,1.7-1.7,1.7h-7c-1,0-1.7-0.7-1.7-1.7v-7c0-1,0.7-1.7,1.7-1.7h7c1,0,1.7,0.7,1.7,1.7V15.8z"/>
</g>
</svg>
