<?xml version="1.0" encoding="utf-8"?>
<!-- Generator: Adobe Illustrator 20.0.0, SVG Export Plug-In . SVG Version: 6.00 Build 0)  -->
<svg version="1.1" id="Layer_1" xmlns="http://www.w3.org/2000/svg" xmlns:xlink="http://www.w3.org/1999/xlink" x="0px" y="0px"
	 viewBox="0 0 140 70" style="enable-background:new 0 0 140 70;" xml:space="preserve">
<style type="text/css">
	.st0{fill:#FFFFFF;}
</style>
<g>
	<g>
		<path d="M35,70c-4.4,0-8.7-0.8-12.8-2.5C11.6,62.9,7,46.9,6.9,39.4V17.6C6.8,8.4,14.6,0.4,24.4,0l21,0c9.9,0.4,17.8,8.4,17.6,17.7
			v21.7c-0.1,7.5-4.6,23.5-15.2,28.1C43.7,69.2,39.4,70,35,70L35,70z M45.3,6.3l-20.7,0c-6.2,0.3-11.5,5.5-11.4,11.3v21.8
			c0.1,7.1,4.6,19.3,11.5,22.3c6.5,2.6,14.1,2.7,20.7,0c6.8-3,11.3-15.2,11.4-22.3V17.6C56.9,11.7,51.6,6.5,45.3,6.3L45.3,6.3z"/>
	</g>
	<g>
		<path d="M34.5,22.6c-1.7,0-3.1-1.4-3.1-3.1V3.1c0-1.7,1.4-3.1,3.1-3.1c1.7,0,3.1,1.4,3.1,3.1v16.3C37.7,21.2,36.3,22.6,34.5,22.6
			L34.5,22.6z"/>
	</g>
</g>
<g>
	<g>
		<path class="st0" d="M105,70c-4.4,0-8.7-0.8-12.8-2.5C81.6,62.9,77,46.9,76.9,39.4V17.6C76.8,8.4,84.6,0.4,94.4,0l21,0
			c9.9,0.4,17.8,8.4,17.6,17.7v21.7c-0.1,7.5-4.6,23.5-15.2,28.1C113.7,69.2,109.4,70,105,70L105,70z M115.3,6.3l-20.7,0
			c-6.2,0.3-11.5,5.5-11.4,11.3v21.8c0.1,7.1,4.6,19.3,11.5,22.3c6.5,2.6,14.1,2.7,20.7,0c6.8-3,11.3-15.2,11.4-22.3V17.6
			C126.9,11.7,121.6,6.5,115.3,6.3L115.3,6.3z"/>
	</g>
	<g>
		<path class="st0" d="M104.5,22.6c-1.7,0-3.1-1.4-3.1-3.1V3.1c0-1.7,1.4-3.1,3.1-3.1c1.7,0,3.1,1.4,3.1,3.1v16.3
			C107.7,21.2,106.3,22.6,104.5,22.6L104.5,22.6z"/>
	</g>
</g>
</svg>
