<?xml version="1.0" encoding="utf-8"?>
<!-- Generator: Adobe Illustrator 20.0.0, SVG Export Plug-In . SVG Version: 6.00 Build 0)  -->
<svg version="1.1" id="Layer_1" xmlns="http://www.w3.org/2000/svg" xmlns:xlink="http://www.w3.org/1999/xlink" x="0px" y="0px"
	 viewBox="0 0 140 70" style="enable-background:new 0 0 140 70;" xml:space="preserve">
<style type="text/css">
	.st0{fill:#FFFFFF;}
</style>
<g>
	<g>
		<path d="M46,66.9c-0.6,0-1.2-0.2-1.8-0.6c-1.4-1-1.7-2.9-0.7-4.2L63.2,35L43.5,7.9c-1-1.3-0.7-3.2,0.7-4.2c1.3-1,3.2-0.7,4.2,0.7
			l21,28.9c0.8,1.1,0.8,2.5,0,3.6l-21,28.9C47.8,66.5,46.9,66.9,46,66.9L46,66.9z"/>
	</g>
	<g>
		<path d="M67,38H3c-1.7,0-3-1.4-3-3c0-1.7,1.4-3,3-3h64c1.7,0,3,1.4,3,3C70,36.7,68.6,38,67,38L67,38z"/>
	</g>
</g>
<g>
	<g>
		<path class="st0" d="M116,66.9c-0.6,0-1.2-0.2-1.8-0.6c-1.4-1-1.7-2.9-0.7-4.2L133.2,35L113.5,7.9c-1-1.3-0.7-3.2,0.7-4.2
			c1.3-1,3.2-0.7,4.2,0.7l21,28.9c0.8,1.1,0.8,2.5,0,3.6l-21,28.9C117.8,66.5,116.9,66.9,116,66.9L116,66.9z"/>
	</g>
	<g>
		<path class="st0" d="M137,38H73c-1.7,0-3-1.4-3-3c0-1.7,1.4-3,3-3h64c1.7,0,3,1.4,3,3C140,36.7,138.6,38,137,38L137,38z"/>
	</g>
</g>
</svg>
