<?xml version="1.0" encoding="utf-8"?>
<!-- Generator: Adobe Illustrator 20.0.0, SVG Export Plug-In . SVG Version: 6.00 Build 0)  -->
<svg version="1.1" id="Layer_1" xmlns="http://www.w3.org/2000/svg" xmlns:xlink="http://www.w3.org/1999/xlink" x="0px" y="0px"
	 viewBox="0 0 140 70" style="enable-background:new 0 0 140 70;" xml:space="preserve">
<style type="text/css">
	.st0{fill:#FFFFFF;}
</style>
<g>
	<g>
		<path d="M24,66.9c-0.9,0-1.9-0.4-2.4-1.2l-21-28.9c-0.8-1.1-0.8-2.5,0-3.6l21-28.9c1-1.4,2.9-1.6,4.2-0.7c1.4,1,1.6,2.9,0.7,4.2
			L6.8,35l19.7,27.1c1,1.3,0.7,3.2-0.7,4.2C25.3,66.7,24.7,66.9,24,66.9L24,66.9z"/>
	</g>
	<g>
		<path d="M67,38H3c-1.7,0-3-1.4-3-3c0-1.7,1.4-3,3-3h64c1.7,0,3,1.4,3,3C70,36.7,68.6,38,67,38L67,38z"/>
	</g>
</g>
<g>
	<g>
		<path class="st0" d="M94,66.9c-0.9,0-1.9-0.4-2.4-1.2l-21-28.9c-0.8-1.1-0.8-2.5,0-3.6l21-28.9c1-1.4,2.9-1.6,4.2-0.7
			c1.4,1,1.6,2.9,0.7,4.2L76.8,35l19.7,27.1c1,1.3,0.7,3.2-0.7,4.2C95.3,66.7,94.7,66.9,94,66.9L94,66.9z"/>
	</g>
	<g>
		<path class="st0" d="M137,38H73c-1.7,0-3-1.4-3-3c0-1.7,1.4-3,3-3h64c1.7,0,3,1.4,3,3C140,36.7,138.6,38,137,38L137,38z"/>
	</g>
</g>
</svg>
