<?xml version="1.0" encoding="utf-8"?>
<!-- Generator: Adobe Illustrator 19.2.1, SVG Export Plug-In . SVG Version: 6.00 Build 0)  -->
<svg version="1.1" id="Layer_1" xmlns="http://www.w3.org/2000/svg" xmlns:xlink="http://www.w3.org/1999/xlink" x="0px" y="0px"
	 viewBox="0 0 140 70" style="enable-background:new 0 0 140 70;" xml:space="preserve">
<style type="text/css">
	.st0{fill:#FFFFFF;}
</style>
<path d="M70,13.3c-2.6,1.1-5.3,1.9-8.2,2.3c3-1.8,5.2-4.6,6.3-7.9c-2.8,1.6-5.8,2.8-9.1,3.5c-2.6-2.8-6.4-4.5-10.5-4.5
	c-7.9,0-14.4,6.4-14.4,14.4c0,1.1,0.1,2.2,0.4,3.3C22.5,23.6,12,17.9,4.9,9.2c-1.2,2.1-1.9,4.6-1.9,7.2c0,5,2.5,9.4,6.4,12
	c-2.4-0.1-4.6-0.7-6.5-1.8c0,0.1,0,0.1,0,0.2c0,7,5,12.8,11.5,14.1c-1.2,0.3-2.5,0.5-3.8,0.5c-0.9,0-1.8-0.1-2.7-0.3
	c1.8,5.7,7.1,9.9,13.4,10c-4.9,3.9-11.1,6.1-17.8,6.1c-1.2,0-2.3-0.1-3.4-0.2c6.4,4.1,13.9,6.5,22,6.5c26.4,0,40.9-21.9,40.9-40.9
	c0-0.6,0-1.2,0-1.9C65.6,18.7,68.1,16.2,70,13.3z"/>
<path class="st0" d="M140,13.3c-2.6,1.1-5.3,1.9-8.2,2.3c3-1.8,5.2-4.6,6.3-7.9c-2.8,1.6-5.8,2.8-9.1,3.5c-2.6-2.8-6.4-4.5-10.5-4.5
	c-7.9,0-14.4,6.4-14.4,14.4c0,1.1,0.1,2.2,0.4,3.3c-11.9-0.6-22.5-6.3-29.6-15c-1.2,2.1-1.9,4.6-1.9,7.2c0,5,2.5,9.4,6.4,12
	c-2.4-0.1-4.6-0.7-6.5-1.8c0,0.1,0,0.1,0,0.2c0,7,5,12.8,11.5,14.1c-1.2,0.3-2.5,0.5-3.8,0.5c-0.9,0-1.8-0.1-2.7-0.3
	c1.8,5.7,7.1,9.9,13.4,10c-4.9,3.9-11.1,6.1-17.8,6.1c-1.2,0-2.3-0.1-3.4-0.2c6.4,4.1,13.9,6.5,22,6.5c26.4,0,40.9-21.9,40.9-40.9
	c0-0.6,0-1.2,0-1.9C135.6,18.7,138.1,16.2,140,13.3z"/>
</svg>
