<?xml version="1.0" encoding="utf-8"?>
<!-- Generator: Adobe Illustrator 20.0.0, SVG Export Plug-In . SVG Version: 6.00 Build 0)  -->
<svg version="1.1" id="Layer_1" xmlns="http://www.w3.org/2000/svg" xmlns:xlink="http://www.w3.org/1999/xlink" x="0px" y="0px"
	 viewBox="0 0 140 70" style="enable-background:new 0 0 140 70;" xml:space="preserve">
<style type="text/css">
	.st0{fill:#FFFFFF;}
</style>
<g>
	<g>
		<path d="M63.9,27c-0.6,0-1.2-0.2-1.8-0.6L35,6.8L7.9,26.5c-1.4,1-3.2,0.7-4.2-0.7c-1-1.3-0.7-3.2,0.7-4.2l28.9-21
			c1.1-0.8,2.5-0.8,3.6,0l28.9,21c1.4,1,1.7,2.9,0.7,4.2C65.7,26.6,64.8,27,63.9,27L63.9,27z"/>
	</g>
	<g>
		<path d="M35,70c-1.7,0-3-1.4-3-3V3c0-1.7,1.4-3,3-3c1.7,0,3,1.4,3,3v64C38,68.6,36.7,70,35,70L35,70z"/>
	</g>
</g>
<g>
	<g>
		<path class="st0" d="M133.9,27c-0.6,0-1.2-0.2-1.8-0.6L105,6.8L77.9,26.5c-1.4,1-3.2,0.7-4.2-0.7c-1-1.3-0.7-3.2,0.7-4.2l28.9-21
			c1.1-0.8,2.5-0.8,3.6,0l28.9,21c1.4,1,1.7,2.9,0.7,4.2C135.7,26.6,134.8,27,133.9,27L133.9,27z"/>
	</g>
	<g>
		<path class="st0" d="M105,70c-1.7,0-3-1.4-3-3V3c0-1.7,1.4-3,3-3c1.7,0,3,1.4,3,3v64C108,68.6,106.7,70,105,70L105,70z"/>
	</g>
</g>
</svg>
