<?xml version="1.0" encoding="utf-8"?>
<!-- Generator: Adobe Illustrator 19.2.1, SVG Export Plug-In . SVG Version: 6.00 Build 0)  -->
<svg version="1.1" id="Layer_1" xmlns="http://www.w3.org/2000/svg" xmlns:xlink="http://www.w3.org/1999/xlink" x="0px" y="0px"
	 viewBox="0 0 140 70" style="enable-background:new 0 0 140 70;" xml:space="preserve">
<style type="text/css">
	.st0{fill:#FFFFFF;}
</style>
<g>
	<path d="M51.7,2.4c-15.7-7.7-38.9,4-46.5,20.7c-9.6,21.2-7.7,29.6,22.4,43.6c17.5,8.1,30.5,0.8,38.4-15.8
		C75.4,30.8,67.4,10.1,51.7,2.4z M19,45.1c-1.2,2.6-4.2,3.7-6.7,2.5c-2.5-1.2-2.9-5.5-2.3-6.9c1.2-2.6,4.2-3.7,6.7-2.5
		C19.2,39.4,20.2,42.5,19,45.1z M46,61.5c-0.3,0.6-1.1,1.2-1.8,1.4c-0.7,0.2-2.3,0.4-3.6,0.4c-1.3,0-3.2-0.1-4.3-0.1
		s-2.9-0.2-4.1-0.2s-2.2-1.3-2.2-2.7s1.1-2.7,2.5-2.9c1.4-0.2,4-0.3,5.7-0.3s4.1,0.1,5.3,0.2c1.2,0.1,2.3,0.9,2.6,1.8
		C46.3,59.8,46.3,61,46,61.5z M63.4,35.3c-2.3,4.9-9.7,8.1-14.5,4c-4.2-3.6-5.8-5.9-4.2-12.9c1.2-5.3,8.5-7.5,13.5-5.1
		C63.2,23.8,65.7,30.5,63.4,35.3z"/>
</g>
<g>
	<path class="st0" d="M121.7,2.4c-15.7-7.7-38.9,4-46.5,20.7c-9.6,21.2-7.7,29.6,22.4,43.6c17.5,8.1,30.5,0.8,38.4-15.8
		C145.4,30.8,137.4,10.1,121.7,2.4z M89,45.1c-1.2,2.6-4.2,3.7-6.7,2.5c-2.5-1.2-2.9-5.5-2.3-6.9c1.2-2.6,4.2-3.7,6.7-2.5
		C89.2,39.4,90.2,42.5,89,45.1z M116,61.5c-0.3,0.6-1.1,1.2-1.8,1.4c-0.7,0.2-2.3,0.4-3.6,0.4c-1.3,0-3.2-0.1-4.3-0.1
		s-2.9-0.2-4.1-0.2s-2.2-1.3-2.2-2.7s1.1-2.7,2.5-2.9c1.4-0.2,4-0.3,5.7-0.3s4.1,0.1,5.3,0.2c1.2,0.1,2.3,0.9,2.6,1.8
		C116.3,59.8,116.3,61,116,61.5z M133.4,35.3c-2.3,4.9-9.7,8.1-14.5,4c-4.2-3.6-5.8-5.9-4.2-12.9c1.2-5.3,8.5-7.5,13.5-5.1
		C133.2,23.8,135.7,30.5,133.4,35.3z"/>
</g>
</svg>
