<?xml version="1.0" encoding="utf-8"?>
<!-- Generator: Adobe Illustrator 19.2.1, SVG Export Plug-In . SVG Version: 6.00 Build 0)  -->
<svg version="1.1" id="Layer_1" xmlns="http://www.w3.org/2000/svg" xmlns:xlink="http://www.w3.org/1999/xlink" x="0px" y="0px"
	 viewBox="0 0 140 70" style="enable-background:new 0 0 140 70;" xml:space="preserve">
<style type="text/css">
	.st0{fill:#FFFFFF;}
</style>
<g>
	<g>
		<path d="M3.5,17.3H0C2.6,10.4,6,6.9,9.5,6.9c2.6,0,4.3,1.7,6.9,4.3c0.9,1.7,1.7,2.6,2.6,2.6c0.9,0,1.7-0.9,2.6-2.6
			c1.7-3.5,2.6-4.3,4.3-4.3c0.9,0,1.7,0.9,1.7,1.7s-0.9,2.6-2.6,5.2c-6,9.5-10.4,17.3-13,22.5c-1.7,5.2-2.6,9.5-2.6,13.8
			c0,3.5,0.9,5.2,2.6,6.9c0.9,1.7,2.6,2.6,4.3,2.6c6,0,12.1-4.3,17.3-12.1c5.2-7.8,8.6-15.6,8.6-22.5c0-2.6-0.9-6-2.6-8.6
			c0-2.6-0.9-3.5-0.9-5.2c0-2.6,1.7-4.3,4.3-4.3c1.7,0,2.6,0.9,3.5,2.6c0.9,0.9,0.9,3.5,0.9,6c0,6-1.7,13-4.3,20.7
			c-2.6,8.6-6.9,14.7-13,19.9C25.1,61.4,19,63.1,13,63.1c-4.3,0-6.9-0.9-9.5-3.5C1.7,57.9,0,55.3,0,51.9s0.9-7.8,3.5-13
			s6.9-10.4,13-18.1c0.9-1.7,1.7-2.6,2.6-3.5c0.9-0.9,0.9-1.7,1.7-1.7c-2.6,0.9-4.3,1.7-6,1.7s-2.6-0.9-4.3-1.7
			c-0.9-1.7-2.6-1.7-3.5-1.7C5.2,13.8,4.3,14.7,3.5,17.3z"/>
		<path d="M53.6,57c0-1.7,0.9-3.5,2.6-5.2s3.5-1.7,5.2-1.7c2.6,0,4.3,0,6,1.7c1.7,1.7,2.6,2.6,2.6,5.2c0,1.7-0.9,3.5-2.6,4.3
			c-1.7,0.9-3.5,1.7-6,1.7s-4.3-0.9-6-1.7C54.4,60.5,53.6,58.8,53.6,57z"/>
	</g>
</g>
<g>
	<g>
		<path class="st0" d="M73.5,17.3H70c2.6-6.9,6-10.4,9.5-10.4c2.6,0,4.3,1.7,6.9,4.3c0.9,1.7,1.7,2.6,2.6,2.6s1.7-0.9,2.6-2.6
			c1.7-3.5,2.6-4.3,4.3-4.3c0.9,0,1.7,0.9,1.7,1.7s-0.9,2.6-2.6,5.2c-6,9.5-10.4,17.3-13,22.5c-1.7,5.2-2.6,9.5-2.6,13.8
			c0,3.5,0.9,5.2,2.6,6.9c0.9,1.7,2.6,2.6,4.3,2.6c6,0,12.1-4.3,17.3-12.1c5.2-7.8,8.6-15.6,8.6-22.5c0-2.6-0.9-6-2.6-8.6
			c0-2.6-0.9-3.5-0.9-5.2c0-2.6,1.7-4.3,4.3-4.3c1.7,0,2.6,0.9,3.5,2.6c0.9,0.9,0.9,3.5,0.9,6c0,6-1.7,13-4.3,20.7
			c-2.6,8.6-6.9,14.7-13,19.9C95.1,61.4,89,63.1,83,63.1c-4.3,0-6.9-0.9-9.5-3.5c-1.7-1.7-3.5-4.3-3.5-7.8s0.9-7.8,3.5-13
			c2.6-5.2,6.9-10.4,13-18.1c0.9-1.7,1.7-2.6,2.6-3.5c0.9-0.9,0.9-1.7,1.7-1.7c-2.6,0.9-4.3,1.7-6,1.7c-1.7,0-2.6-0.9-4.3-1.7
			c-0.9-1.7-2.6-1.7-3.5-1.7C75.2,13.8,74.3,14.7,73.5,17.3z"/>
		<path class="st0" d="M123.6,57c0-1.7,0.9-3.5,2.6-5.2c1.7-1.7,3.5-1.7,5.2-1.7c2.6,0,4.3,0,6,1.7c1.7,1.7,2.6,2.6,2.6,5.2
			c0,1.7-0.9,3.5-2.6,4.3s-3.5,1.7-6,1.7c-2.6,0-4.3-0.9-6-1.7C124.4,60.5,123.6,58.8,123.6,57z"/>
	</g>
</g>
</svg>
